<svg width="362" height="72" viewBox="0 0 362 72" fill="none" xmlns="http://www.w3.org/2000/svg">
<path d="M4.375 39.5V35.125H8.75V30.75H13.125V26.375H17.5V22H21.875V17.625H30.625V22H26.25V26.375H21.875V30.75H17.5V35.125H13.125V39.5H17.5V43.875H21.875V48.25H26.25V52.625H30.625V57H21.875V52.625H17.5V48.25H13.125V43.875H8.75V39.5H4.375ZM39.375 57V26.375H65.625V30.75H70V57H61.25V30.75H56.875V52.625H52.5V30.75H48.125V57H39.375ZM78.75 30.75V26.375H96.25V30.75H100.625V43.875H83.125V52.625H96.25V57H78.75V52.625H74.375V30.75H78.75ZM91.875 30.75H83.125V39.5H91.875V30.75ZM118.125 26.375V35.125H122.5V39.5H118.125V57H109.375V26.375H118.125ZM135.625 35.125H122.5V30.75H126.875V26.375H135.625V35.125ZM144.375 39.5V35.125H170.625V39.5H144.375ZM205.625 52.625V57H179.375V52.625H188.125V22H179.375V17.625H196.875V52.625H205.625ZM236.25 26.375V30.75H240.625V52.625H236.25V57H218.75V52.625H214.375V30.75H218.75V26.375H236.25ZM231.875 30.75H223.125V52.625H231.875V30.75ZM249.375 52.625V30.75H253.75V26.375H275.625V65.75H271.25V70.125H249.375V65.75H266.875V57H253.75V52.625H249.375ZM266.875 30.75H258.125V52.625H266.875V30.75Z" fill="#233067"/>
<path d="M4.375 39.5H2.875V41H4.375V39.5ZM4.375 35.125V33.625H2.875V35.125H4.375ZM8.75 35.125V36.625H10.25V35.125H8.75ZM8.75 30.75V29.25H7.25V30.75H8.75ZM13.125 30.75V32.25H14.625V30.75H13.125ZM13.125 26.375V24.875H11.625V26.375H13.125ZM17.5 26.375V27.875H19V26.375H17.5ZM17.5 22V20.5H16V22H17.5ZM21.875 22V23.5H23.375V22H21.875ZM21.875 17.625V16.125H20.375V17.625H21.875ZM30.625 17.625H32.125V16.125H30.625V17.625ZM30.625 22V23.5H32.125V22H30.625ZM26.25 22V20.5H24.75V22H26.25ZM26.25 26.375V27.875H27.75V26.375H26.25ZM21.875 26.375V24.875H20.375V26.375H21.875ZM21.875 30.75V32.25H23.375V30.75H21.875ZM17.5 30.75V29.25H16V30.75H17.5ZM17.5 35.125V36.625H19V35.125H17.5ZM13.125 35.125V33.625H11.625V35.125H13.125ZM13.125 39.5H11.625V41H13.125V39.5ZM17.5 39.5H19V38H17.5V39.5ZM17.5 43.875H16V45.375H17.5V43.875ZM21.875 43.875H23.375V42.375H21.875V43.875ZM21.875 48.25H20.375V49.75H21.875V48.25ZM26.25 48.25H27.75V46.75H26.25V48.25ZM26.25 52.625H24.75V54.125H26.25V52.625ZM30.625 52.625H32.125V51.125H30.625V52.625ZM30.625 57V58.5H32.125V57H30.625ZM21.875 57H20.375V58.5H21.875V57ZM21.875 52.625H23.375V51.125H21.875V52.625ZM17.5 52.625H16V54.125H17.5V52.625ZM17.5 48.25H19V46.75H17.5V48.25ZM13.125 48.25H11.625V49.75H13.125V48.25ZM13.125 43.875H14.625V42.375H13.125V43.875ZM8.75 43.875H7.25V45.375H8.75V43.875ZM8.75 39.5H10.25V38H8.75V39.5ZM5.875 39.5V35.125H2.875V39.5H5.875ZM4.375 36.625H8.75V33.625H4.375V36.625ZM10.25 35.125V30.75H7.25V35.125H10.25ZM8.75 32.25H13.125V29.25H8.75V32.25ZM14.625 30.75V26.375H11.625V30.75H14.625ZM13.125 27.875H17.5V24.875H13.125V27.875ZM19 26.375V22H16V26.375H19ZM17.5 23.5H21.875V20.5H17.5V23.5ZM23.375 22V17.625H20.375V22H23.375ZM21.875 19.125H30.625V16.125H21.875V19.125ZM29.125 17.625V22H32.125V17.625H29.125ZM30.625 20.5H26.25V23.5H30.625V20.5ZM24.75 22V26.375H27.75V22H24.75ZM26.25 24.875H21.875V27.875H26.25V24.875ZM20.375 26.375V30.75H23.375V26.375H20.375ZM21.875 29.25H17.5V32.25H21.875V29.25ZM16 30.75V35.125H19V30.75H16ZM17.5 33.625H13.125V36.625H17.5V33.625ZM11.625 35.125V39.5H14.625V35.125H11.625ZM13.125 41H17.5V38H13.125V41ZM16 39.5V43.875H19V39.5H16ZM17.5 45.375H21.875V42.375H17.5V45.375ZM20.375 43.875V48.25H23.375V43.875H20.375ZM21.875 49.75H26.25V46.75H21.875V49.75ZM24.75 48.25V52.625H27.75V48.25H24.75ZM26.25 54.125H30.625V51.125H26.25V54.125ZM29.125 52.625V57H32.125V52.625H29.125ZM30.625 55.5H21.875V58.5H30.625V55.5ZM23.375 57V52.625H20.375V57H23.375ZM21.875 51.125H17.5V54.125H21.875V51.125ZM19 52.625V48.25H16V52.625H19ZM17.5 46.75H13.125V49.75H17.5V46.75ZM14.625 48.25V43.875H11.625V48.25H14.625ZM13.125 42.375H8.75V45.375H13.125V42.375ZM10.25 43.875V39.5H7.25V43.875H10.25ZM8.75 38H4.375V41H8.75V38ZM39.375 57H37.875V58.5H39.375V57ZM39.375 26.375V24.875H37.875V26.375H39.375ZM65.625 26.375H67.125V24.875H65.625V26.375ZM65.625 30.75H64.125V32.25H65.625V30.75ZM70 30.75H71.5V29.25H70V30.75ZM70 57V58.5H71.5V57H70ZM61.25 57H59.75V58.5H61.25V57ZM61.25 30.75H62.75V29.25H61.25V30.75ZM56.875 30.75V29.25H55.375V30.75H56.875ZM56.875 52.625V54.125H58.375V52.625H56.875ZM52.5 52.625H51V54.125H52.5V52.625ZM52.5 30.75H54V29.25H52.5V30.75ZM48.125 30.75V29.25H46.625V30.75H48.125ZM48.125 57V58.5H49.625V57H48.125ZM40.875 57V26.375H37.875V57H40.875ZM39.375 27.875H65.625V24.875H39.375V27.875ZM64.125 26.375V30.75H67.125V26.375H64.125ZM65.625 32.25H70V29.25H65.625V32.25ZM68.5 30.75V57H71.5V30.75H68.5ZM70 55.5H61.25V58.5H70V55.5ZM62.75 57V30.75H59.75V57H62.75ZM61.25 29.25H56.875V32.25H61.25V29.25ZM55.375 30.75V52.625H58.375V30.75H55.375ZM56.875 51.125H52.5V54.125H56.875V51.125ZM54 52.625V30.75H51V52.625H54ZM52.5 29.25H48.125V32.25H52.5V29.25ZM46.625 30.75V57H49.625V30.75H46.625ZM48.125 55.5H39.375V58.5H48.125V55.5ZM78.75 30.75V32.25H80.25V30.75H78.75ZM78.75 26.375V24.875H77.25V26.375H78.75ZM96.25 26.375H97.75V24.875H96.25V26.375ZM96.25 30.75H94.75V32.25H96.25V30.75ZM100.625 30.75H102.125V29.25H100.625V30.75ZM100.625 43.875V45.375H102.125V43.875H100.625ZM83.125 43.875V42.375H81.625V43.875H83.125ZM83.125 52.625H81.625V54.125H83.125V52.625ZM96.25 52.625H97.75V51.125H96.25V52.625ZM96.25 57V58.5H97.75V57H96.25ZM78.75 57H77.25V58.5H78.75V57ZM78.75 52.625H80.25V51.125H78.75V52.625ZM74.375 52.625H72.875V54.125H74.375V52.625ZM74.375 30.75V29.25H72.875V30.75H74.375ZM91.875 30.75H93.375V29.25H91.875V30.75ZM83.125 30.75V29.25H81.625V30.75H83.125ZM83.125 39.5H81.625V41H83.125V39.5ZM91.875 39.5V41H93.375V39.5H91.875ZM80.25 30.75V26.375H77.25V30.75H80.25ZM78.75 27.875H96.25V24.875H78.75V27.875ZM94.75 26.375V30.75H97.75V26.375H94.75ZM96.25 32.25H100.625V29.25H96.25V32.25ZM99.125 30.75V43.875H102.125V30.75H99.125ZM100.625 42.375H83.125V45.375H100.625V42.375ZM81.625 43.875V52.625H84.625V43.875H81.625ZM83.125 54.125H96.25V51.125H83.125V54.125ZM94.75 52.625V57H97.75V52.625H94.75ZM96.25 55.5H78.75V58.5H96.25V55.5ZM80.25 57V52.625H77.25V57H80.25ZM78.75 51.125H74.375V54.125H78.75V51.125ZM75.875 52.625V30.75H72.875V52.625H75.875ZM74.375 32.25H78.75V29.25H74.375V32.25ZM91.875 29.25H83.125V32.25H91.875V29.25ZM81.625 30.75V39.5H84.625V30.75H81.625ZM83.125 41H91.875V38H83.125V41ZM93.375 39.5V30.75H90.375V39.5H93.375ZM118.125 26.375H119.625V24.875H118.125V26.375ZM118.125 35.125H116.625V36.625H118.125V35.125ZM122.5 35.125H124V33.625H122.5V35.125ZM122.5 39.5V41H124V39.5H122.5ZM118.125 39.5V38H116.625V39.5H118.125ZM118.125 57V58.5H119.625V57H118.125ZM109.375 57H107.875V58.5H109.375V57ZM109.375 26.375V24.875H107.875V26.375H109.375ZM135.625 35.125V36.625H137.125V35.125H135.625ZM122.5 35.125H121V36.625H122.5V35.125ZM122.5 30.75V29.25H121V30.75H122.5ZM126.875 30.75V32.25H128.375V30.75H126.875ZM126.875 26.375V24.875H125.375V26.375H126.875ZM135.625 26.375H137.125V24.875H135.625V26.375ZM116.625 26.375V35.125H119.625V26.375H116.625ZM118.125 36.625H122.5V33.625H118.125V36.625ZM121 35.125V39.5H124V35.125H121ZM122.5 38H118.125V41H122.5V38ZM116.625 39.5V57H119.625V39.5H116.625ZM118.125 55.5H109.375V58.5H118.125V55.5ZM110.875 57V26.375H107.875V57H110.875ZM109.375 27.875H118.125V24.875H109.375V27.875ZM135.625 33.625H122.5V36.625H135.625V33.625ZM124 35.125V30.75H121V35.125H124ZM122.5 32.25H126.875V29.25H122.5V32.25ZM128.375 30.75V26.375H125.375V30.75H128.375ZM126.875 27.875H135.625V24.875H126.875V27.875ZM134.125 26.375V35.125H137.125V26.375H134.125ZM144.375 39.5H142.875V41H144.375V39.5ZM144.375 35.125V33.625H142.875V35.125H144.375ZM170.625 35.125H172.125V33.625H170.625V35.125ZM170.625 39.5V41H172.125V39.5H170.625ZM145.875 39.5V35.125H142.875V39.5H145.875ZM144.375 36.625H170.625V33.625H144.375V36.625ZM169.125 35.125V39.5H172.125V35.125H169.125ZM170.625 38H144.375V41H170.625V38ZM205.625 52.625H207.125V51.125H205.625V52.625ZM205.625 57V58.5H207.125V57H205.625ZM179.375 57H177.875V58.5H179.375V57ZM179.375 52.625V51.125H177.875V52.625H179.375ZM188.125 52.625V54.125H189.625V52.625H188.125ZM188.125 22H189.625V20.5H188.125V22ZM179.375 22H177.875V23.5H179.375V22ZM179.375 17.625V16.125H177.875V17.625H179.375ZM196.875 17.625H198.375V16.125H196.875V17.625ZM196.875 52.625H195.375V54.125H196.875V52.625ZM204.125 52.625V57H207.125V52.625H204.125ZM205.625 55.5H179.375V58.5H205.625V55.5ZM180.875 57V52.625H177.875V57H180.875ZM179.375 54.125H188.125V51.125H179.375V54.125ZM189.625 52.625V22H186.625V52.625H189.625ZM188.125 20.5H179.375V23.5H188.125V20.5ZM180.875 22V17.625H177.875V22H180.875ZM179.375 19.125H196.875V16.125H179.375V19.125ZM195.375 17.625V52.625H198.375V17.625H195.375ZM196.875 54.125H205.625V51.125H196.875V54.125ZM236.25 26.375H237.75V24.875H236.25V26.375ZM236.25 30.75H234.75V32.25H236.25V30.75ZM240.625 30.75H242.125V29.25H240.625V30.75ZM240.625 52.625V54.125H242.125V52.625H240.625ZM236.25 52.625V51.125H234.75V52.625H236.25ZM236.25 57V58.5H237.75V57H236.25ZM218.75 57H217.25V58.5H218.75V57ZM218.75 52.625H220.25V51.125H218.75V52.625ZM214.375 52.625H212.875V54.125H214.375V52.625ZM214.375 30.75V29.25H212.875V30.75H214.375ZM218.75 30.75V32.25H220.25V30.75H218.75ZM218.75 26.375V24.875H217.25V26.375H218.75ZM231.875 30.75H233.375V29.25H231.875V30.75ZM223.125 30.75V29.25H221.625V30.75H223.125ZM223.125 52.625H221.625V54.125H223.125V52.625ZM231.875 52.625V54.125H233.375V52.625H231.875ZM234.75 26.375V30.75H237.75V26.375H234.75ZM236.25 32.25H240.625V29.25H236.25V32.25ZM239.125 30.75V52.625H242.125V30.75H239.125ZM240.625 51.125H236.25V54.125H240.625V51.125ZM234.75 52.625V57H237.75V52.625H234.75ZM236.25 55.5H218.75V58.5H236.25V55.5ZM220.25 57V52.625H217.25V57H220.25ZM218.75 51.125H214.375V54.125H218.75V51.125ZM215.875 52.625V30.75H212.875V52.625H215.875ZM214.375 32.25H218.75V29.25H214.375V32.25ZM220.25 30.75V26.375H217.25V30.75H220.25ZM218.75 27.875H236.25V24.875H218.75V27.875ZM231.875 29.25H223.125V32.25H231.875V29.25ZM221.625 30.75V52.625H224.625V30.75H221.625ZM223.125 54.125H231.875V51.125H223.125V54.125ZM233.375 52.625V30.75H230.375V52.625H233.375ZM249.375 52.625H247.875V54.125H249.375V52.625ZM249.375 30.75V29.25H247.875V30.75H249.375ZM253.75 30.75V32.25H255.25V30.75H253.75ZM253.75 26.375V24.875H252.25V26.375H253.75ZM275.625 26.375H277.125V24.875H275.625V26.375ZM275.625 65.75V67.25H277.125V65.75H275.625ZM271.25 65.75V64.25H269.75V65.75H271.25ZM271.25 70.125V71.625H272.75V70.125H271.25ZM249.375 70.125H247.875V71.625H249.375V70.125ZM249.375 65.75V64.25H247.875V65.75H249.375ZM266.875 65.75V67.25H268.375V65.75H266.875ZM266.875 57H268.375V55.5H266.875V57ZM253.75 57H252.25V58.5H253.75V57ZM253.75 52.625H255.25V51.125H253.75V52.625ZM266.875 30.75H268.375V29.25H266.875V30.75ZM258.125 30.75V29.25H256.625V30.75H258.125ZM258.125 52.625H256.625V54.125H258.125V52.625ZM266.875 52.625V54.125H268.375V52.625H266.875ZM250.875 52.625V30.75H247.875V52.625H250.875ZM249.375 32.25H253.75V29.25H249.375V32.25ZM255.25 30.75V26.375H252.25V30.75H255.25ZM253.75 27.875H275.625V24.875H253.75V27.875ZM274.125 26.375V65.75H277.125V26.375H274.125ZM275.625 64.25H271.25V67.25H275.625V64.25ZM269.75 65.75V70.125H272.75V65.75H269.75ZM271.25 68.625H249.375V71.625H271.25V68.625ZM250.875 70.125V65.75H247.875V70.125H250.875ZM249.375 67.25H266.875V64.25H249.375V67.25ZM268.375 65.75V57H265.375V65.75H268.375ZM266.875 55.5H253.75V58.5H266.875V55.5ZM255.25 57V52.625H252.25V57H255.25ZM253.75 51.125H249.375V54.125H253.75V51.125ZM266.875 29.25H258.125V32.25H266.875V29.25ZM256.625 30.75V52.625H259.625V30.75H256.625ZM258.125 54.125H266.875V51.125H258.125V54.125ZM268.375 52.625V30.75H265.375V52.625H268.375Z" fill="#233067"/>
<path d="M296.375 61.375V52.625H300.75V43.875H305.125V35.125H309.5V26.375H313.875V17.625H322.625V26.375H318.25V35.125H313.875V43.875H309.5V52.625H305.125V61.375H296.375ZM331.375 57V52.625H335.75V48.25H340.125V43.875H344.5V39.5H348.875V35.125H344.5V30.75H340.125V26.375H335.75V22H331.375V17.625H340.125V22H344.5V26.375H348.875V30.75H353.25V35.125H357.625V39.5H353.25V43.875H348.875V48.25H344.5V52.625H340.125V57H331.375Z" fill="#233067"/>
<path d="M296.375 61.375H294.875V62.875H296.375V61.375ZM296.375 52.625V51.125H294.875V52.625H296.375ZM300.75 52.625V54.125H302.25V52.625H300.75ZM300.75 43.875V42.375H299.25V43.875H300.75ZM305.125 43.875V45.375H306.625V43.875H305.125ZM305.125 35.125V33.625H303.625V35.125H305.125ZM309.5 35.125V36.625H311V35.125H309.5ZM309.5 26.375V24.875H308V26.375H309.5ZM313.875 26.375V27.875H315.375V26.375H313.875ZM313.875 17.625V16.125H312.375V17.625H313.875ZM322.625 17.625H324.125V16.125H322.625V17.625ZM322.625 26.375V27.875H324.125V26.375H322.625ZM318.25 26.375V24.875H316.75V26.375H318.25ZM318.25 35.125V36.625H319.75V35.125H318.25ZM313.875 35.125V33.625H312.375V35.125H313.875ZM313.875 43.875V45.375H315.375V43.875H313.875ZM309.5 43.875V42.375H308V43.875H309.5ZM309.5 52.625V54.125H311V52.625H309.5ZM305.125 52.625V51.125H303.625V52.625H305.125ZM305.125 61.375V62.875H306.625V61.375H305.125ZM297.875 61.375V52.625H294.875V61.375H297.875ZM296.375 54.125H300.75V51.125H296.375V54.125ZM302.25 52.625V43.875H299.25V52.625H302.25ZM300.75 45.375H305.125V42.375H300.75V45.375ZM306.625 43.875V35.125H303.625V43.875H306.625ZM305.125 36.625H309.5V33.625H305.125V36.625ZM311 35.125V26.375H308V35.125H311ZM309.5 27.875H313.875V24.875H309.5V27.875ZM315.375 26.375V17.625H312.375V26.375H315.375ZM313.875 19.125H322.625V16.125H313.875V19.125ZM321.125 17.625V26.375H324.125V17.625H321.125ZM322.625 24.875H318.25V27.875H322.625V24.875ZM316.75 26.375V35.125H319.75V26.375H316.75ZM318.25 33.625H313.875V36.625H318.25V33.625ZM312.375 35.125V43.875H315.375V35.125H312.375ZM313.875 42.375H309.5V45.375H313.875V42.375ZM308 43.875V52.625H311V43.875H308ZM309.5 51.125H305.125V54.125H309.5V51.125ZM303.625 52.625V61.375H306.625V52.625H303.625ZM305.125 59.875H296.375V62.875H305.125V59.875ZM331.375 57H329.875V58.5H331.375V57ZM331.375 52.625V51.125H329.875V52.625H331.375ZM335.75 52.625V54.125H337.25V52.625H335.75ZM335.75 48.25V46.75H334.25V48.25H335.75ZM340.125 48.25V49.75H341.625V48.25H340.125ZM340.125 43.875V42.375H338.625V43.875H340.125ZM344.5 43.875V45.375H346V43.875H344.5ZM344.5 39.5V38H343V39.5H344.5ZM348.875 39.5V41H350.375V39.5H348.875ZM348.875 35.125H350.375V33.625H348.875V35.125ZM344.5 35.125H343V36.625H344.5V35.125ZM344.5 30.75H346V29.25H344.5V30.75ZM340.125 30.75H338.625V32.25H340.125V30.75ZM340.125 26.375H341.625V24.875H340.125V26.375ZM335.75 26.375H334.25V27.875H335.75V26.375ZM335.75 22H337.25V20.5H335.75V22ZM331.375 22H329.875V23.5H331.375V22ZM331.375 17.625V16.125H329.875V17.625H331.375ZM340.125 17.625H341.625V16.125H340.125V17.625ZM340.125 22H338.625V23.5H340.125V22ZM344.5 22H346V20.5H344.5V22ZM344.5 26.375H343V27.875H344.5V26.375ZM348.875 26.375H350.375V24.875H348.875V26.375ZM348.875 30.75H347.375V32.25H348.875V30.75ZM353.25 30.75H354.75V29.25H353.25V30.75ZM353.25 35.125H351.75V36.625H353.25V35.125ZM357.625 35.125H359.125V33.625H357.625V35.125ZM357.625 39.5V41H359.125V39.5H357.625ZM353.25 39.5V38H351.75V39.5H353.25ZM353.25 43.875V45.375H354.75V43.875H353.25ZM348.875 43.875V42.375H347.375V43.875H348.875ZM348.875 48.25V49.75H350.375V48.25H348.875ZM344.5 48.25V46.75H343V48.25H344.5ZM344.5 52.625V54.125H346V52.625H344.5ZM340.125 52.625V51.125H338.625V52.625H340.125ZM340.125 57V58.5H341.625V57H340.125ZM332.875 57V52.625H329.875V57H332.875ZM331.375 54.125H335.75V51.125H331.375V54.125ZM337.25 52.625V48.25H334.25V52.625H337.25ZM335.75 49.75H340.125V46.75H335.75V49.75ZM341.625 48.25V43.875H338.625V48.25H341.625ZM340.125 45.375H344.5V42.375H340.125V45.375ZM346 43.875V39.5H343V43.875H346ZM344.5 41H348.875V38H344.5V41ZM350.375 39.5V35.125H347.375V39.5H350.375ZM348.875 33.625H344.5V36.625H348.875V33.625ZM346 35.125V30.75H343V35.125H346ZM344.5 29.25H340.125V32.25H344.5V29.25ZM341.625 30.75V26.375H338.625V30.75H341.625ZM340.125 24.875H335.75V27.875H340.125V24.875ZM337.25 26.375V22H334.25V26.375H337.25ZM335.75 20.5H331.375V23.5H335.75V20.5ZM332.875 22V17.625H329.875V22H332.875ZM331.375 19.125H340.125V16.125H331.375V19.125ZM338.625 17.625V22H341.625V17.625H338.625ZM340.125 23.5H344.5V20.5H340.125V23.5ZM343 22V26.375H346V22H343ZM344.5 27.875H348.875V24.875H344.5V27.875ZM347.375 26.375V30.75H350.375V26.375H347.375ZM348.875 32.25H353.25V29.25H348.875V32.25ZM351.75 30.75V35.125H354.75V30.75H351.75ZM353.25 36.625H357.625V33.625H353.25V36.625ZM356.125 35.125V39.5H359.125V35.125H356.125ZM357.625 38H353.25V41H357.625V38ZM351.75 39.5V43.875H354.75V39.5H351.75ZM353.25 42.375H348.875V45.375H353.25V42.375ZM347.375 43.875V48.25H350.375V43.875H347.375ZM348.875 46.75H344.5V49.75H348.875V46.75ZM343 48.25V52.625H346V48.25H343ZM344.5 51.125H340.125V54.125H344.5V51.125ZM338.625 52.625V57H341.625V52.625H338.625ZM340.125 55.5H331.375V58.5H340.125V55.5Z" fill="#233067"/>
</svg>
